# xmcd CD database file
#
# Track frame offsets:
#	150
#	22347
#	40935
#
# Disc length: 837 seconds
#
# Revision: 11
# Processed by: cddbd v1.5.2PL0 Copyright (c) Steve Scherf et al.
# Submitted via: CDex 1.70beta2
#
DISCID=22034303
DTITLE=真野恵里菜 - 乙女の祈り
DYEAR=2009
DGENRE=JPop
TTITLE0=乙女の祈り
TTITLE1=水色想い
TTITLE2=乙女の祈り (Instrumental)
EXTD=YEAR: 2009
EXTT0=
EXTT1=
EXTT2=
PLAYORDER=
